<?xml version="1.0" encoding="utf-8" standalone="no"?>
<!DOCTYPE svg PUBLIC "-//W3C//DTD SVG 1.1//EN"
  "http://www.w3.org/Graphics/SVG/1.1/DTD/svg11.dtd">
<svg xmlns:xlink="http://www.w3.org/1999/xlink" width="576pt" height="288pt" viewBox="0 0 576 288" xmlns="http://www.w3.org/2000/svg" version="1.1">
 <metadata>
  <rdf:RDF xmlns:dc="http://purl.org/dc/elements/1.1/" xmlns:cc="http://creativecommons.org/ns#" xmlns:rdf="http://www.w3.org/1999/02/22-rdf-syntax-ns#">
   <cc:Work>
    <dc:type rdf:resource="http://purl.org/dc/dcmitype/StillImage"/>
    <dc:date>2025-05-06T09:50:23.455404</dc:date>
    <dc:format>image/svg+xml</dc:format>
    <dc:creator>
     <cc:Agent>
      <dc:title>Matplotlib v3.7.5, https://matplotlib.org/</dc:title>
     </cc:Agent>
    </dc:creator>
   </cc:Work>
  </rdf:RDF>
 </metadata>
 <defs>
  <style type="text/css">*{stroke-linejoin: round; stroke-linecap: butt}</style>
 </defs>
 <g id="figure_1">
  <g id="patch_1">
   <path d="M 0 288 
L 576 288 
L 576 0 
L 0 0 
z
" style="fill: #ffffff"/>
  </g>
  <g id="axes_1">
   <g id="patch_2">
    <path d="M 72 256.32 
L 518.4 256.32 
L 518.4 34.56 
L 72 34.56 
z
" style="fill: #ffffff"/>
   </g>
   <g id="PathCollection_1">
    <defs>
     <path id="md16101a10c" d="M 0 3 
C 0.795609 3 1.55874 2.683901 2.12132 2.12132 
C 2.683901 1.55874 3 0.795609 3 0 
C 3 -0.795609 2.683901 -1.55874 2.12132 -2.12132 
C 1.55874 -2.683901 0.795609 -3 0 -3 
C -0.795609 -3 -1.55874 -2.683901 -2.12132 -2.12132 
C -2.683901 -1.55874 -3 -0.795609 -3 0 
C -3 0.795609 -2.683901 1.55874 -2.12132 2.12132 
C -1.55874 2.683901 -0.795609 3 0 3 
z
" style="stroke: #ff0000"/>
    </defs>
    <g clip-path="url(#p7f3aaa6433)">
     <use xlink:href="#md16101a10c" x="190.773983" y="92.811612" style="fill: #ff0000; stroke: #ff0000"/>
     <use xlink:href="#md16101a10c" x="448.867554" y="219.866952" style="fill: #ff0000; stroke: #ff0000"/>
     <use xlink:href="#md16101a10c" x="341.894561" y="210.471007" style="fill: #ff0000; stroke: #ff0000"/>
     <use xlink:href="#md16101a10c" x="326.612704" y="169.389628" style="fill: #ff0000; stroke: #ff0000"/>
     <use xlink:href="#md16101a10c" x="460.753442" y="230.947137" style="fill: #ff0000; stroke: #ff0000"/>
     <use xlink:href="#md16101a10c" x="469.243362" y="193.537851" style="fill: #ff0000; stroke: #ff0000"/>
     <use xlink:href="#md16101a10c" x="168.70019" y="125.18766" style="fill: #ff0000; stroke: #ff0000"/>
     <use xlink:href="#md16101a10c" x="408.115938" y="53.395647" style="fill: #ff0000; stroke: #ff0000"/>
     <use xlink:href="#md16101a10c" x="180.586078" y="76.592117" style="fill: #ff0000; stroke: #ff0000"/>
     <use xlink:href="#md16101a10c" x="418.303842" y="110.43236" style="fill: #ff0000; stroke: #ff0000"/>
     <use xlink:href="#md16101a10c" x="263.787296" y="143.007576" style="fill: #ff0000; stroke: #ff0000"/>
     <use xlink:href="#md16101a10c" x="372.458273" y="149.322135" style="fill: #ff0000; stroke: #ff0000"/>
     <use xlink:href="#md16101a10c" x="465.847394" y="210.14596" style="fill: #ff0000; stroke: #ff0000"/>
     <use xlink:href="#md16101a10c" x="421.69981" y="99.853715" style="fill: #ff0000; stroke: #ff0000"/>
     <use xlink:href="#md16101a10c" x="296.048992" y="100.137816" style="fill: #ff0000; stroke: #ff0000"/>
     <use xlink:href="#md16101a10c" x="172.096158" y="133.508654" style="fill: #ff0000; stroke: #ff0000"/>
     <use xlink:href="#md16101a10c" x="216.243743" y="177.106203" style="fill: #ff0000; stroke: #ff0000"/>
     <use xlink:href="#md16101a10c" x="380.948193" y="96.822898" style="fill: #ff0000; stroke: #ff0000"/>
     <use xlink:href="#md16101a10c" x="223.035679" y="162.191641" style="fill: #ff0000; stroke: #ff0000"/>
     <use xlink:href="#md16101a10c" x="285.861088" y="69.482214" style="fill: #ff0000; stroke: #ff0000"/>
     <use xlink:href="#md16101a10c" x="470.941347" y="170.360558" style="fill: #ff0000; stroke: #ff0000"/>
     <use xlink:href="#md16101a10c" x="406.417954" y="54.721902" style="fill: #ff0000; stroke: #ff0000"/>
     <use xlink:href="#md16101a10c" x="236.619551" y="204.308741" style="fill: #ff0000; stroke: #ff0000"/>
     <use xlink:href="#md16101a10c" x="430.18973" y="148.523024" style="fill: #ff0000; stroke: #ff0000"/>
     <use xlink:href="#md16101a10c" x="262.089312" y="180.974853" style="fill: #ff0000; stroke: #ff0000"/>
     <use xlink:href="#md16101a10c" x="369.062305" y="159.126542" style="fill: #ff0000; stroke: #ff0000"/>
     <use xlink:href="#md16101a10c" x="464.14941" y="235.747468" style="fill: #ff0000; stroke: #ff0000"/>
     <use xlink:href="#md16101a10c" x="474.337315" y="155.771983" style="fill: #ff0000; stroke: #ff0000"/>
     <use xlink:href="#md16101a10c" x="367.364321" y="171.942901" style="fill: #ff0000; stroke: #ff0000"/>
     <use xlink:href="#md16101a10c" x="234.921567" y="204.798085" style="fill: #ff0000; stroke: #ff0000"/>
     <use xlink:href="#md16101a10c" x="187.378014" y="105.462116" style="fill: #ff0000; stroke: #ff0000"/>
     <use xlink:href="#md16101a10c" x="253.599391" y="175.289732" style="fill: #ff0000; stroke: #ff0000"/>
     <use xlink:href="#md16101a10c" x="414.907874" y="93.579226" style="fill: #ff0000; stroke: #ff0000"/>
     <use xlink:href="#md16101a10c" x="348.686497" y="215.813433" style="fill: #ff0000; stroke: #ff0000"/>
     <use xlink:href="#md16101a10c" x="197.565919" y="125.794855" style="fill: #ff0000; stroke: #ff0000"/>
     <use xlink:href="#md16101a10c" x="481.129251" y="135.323313" style="fill: #ff0000; stroke: #ff0000"/>
     <use xlink:href="#md16101a10c" x="379.250209" y="114.647988" style="fill: #ff0000; stroke: #ff0000"/>
     <use xlink:href="#md16101a10c" x="167.002206" y="121.141667" style="fill: #ff0000; stroke: #ff0000"/>
     <use xlink:href="#md16101a10c" x="301.142944" y="63.823538" style="fill: #ff0000; stroke: #ff0000"/>
     <use xlink:href="#md16101a10c" x="340.196577" y="204.025095" style="fill: #ff0000; stroke: #ff0000"/>
     <use xlink:href="#md16101a10c" x="387.740129" y="93.494564" style="fill: #ff0000; stroke: #ff0000"/>
     <use xlink:href="#md16101a10c" x="272.277216" y="128.87602" style="fill: #ff0000; stroke: #ff0000"/>
     <use xlink:href="#md16101a10c" x="204.357855" y="108.500917" style="fill: #ff0000; stroke: #ff0000"/>
     <use xlink:href="#md16101a10c" x="352.082465" y="237.421858" style="fill: #ff0000; stroke: #ff0000"/>
     <use xlink:href="#md16101a10c" x="445.471586" y="215.255606" style="fill: #ff0000; stroke: #ff0000"/>
     <use xlink:href="#md16101a10c" x="267.183264" y="136.414356" style="fill: #ff0000; stroke: #ff0000"/>
     <use xlink:href="#md16101a10c" x="173.794142" y="123.883962" style="fill: #ff0000; stroke: #ff0000"/>
     <use xlink:href="#md16101a10c" x="287.559072" y="101.917993" style="fill: #ff0000; stroke: #ff0000"/>
     <use xlink:href="#md16101a10c" x="360.572385" y="206.745656" style="fill: #ff0000; stroke: #ff0000"/>
     <use xlink:href="#md16101a10c" x="403.021986" y="71.630968" style="fill: #ff0000; stroke: #ff0000"/>
     <use xlink:href="#md16101a10c" x="280.767136" y="95.299664" style="fill: #ff0000; stroke: #ff0000"/>
     <use xlink:href="#md16101a10c" x="370.760289" y="161.240197" style="fill: #ff0000; stroke: #ff0000"/>
     <use xlink:href="#md16101a10c" x="472.639331" y="162.015487" style="fill: #ff0000; stroke: #ff0000"/>
     <use xlink:href="#md16101a10c" x="324.91472" y="183.662319" style="fill: #ff0000; stroke: #ff0000"/>
     <use xlink:href="#md16101a10c" x="413.20989" y="99.46459" style="fill: #ff0000; stroke: #ff0000"/>
     <use xlink:href="#md16101a10c" x="200.961887" y="125.718467" style="fill: #ff0000; stroke: #ff0000"/>
     <use xlink:href="#md16101a10c" x="211.149791" y="130.58607" style="fill: #ff0000; stroke: #ff0000"/>
     <use xlink:href="#md16101a10c" x="431.887714" y="181.92377" style="fill: #ff0000; stroke: #ff0000"/>
     <use xlink:href="#md16101a10c" x="228.129631" y="190.33097" style="fill: #ff0000; stroke: #ff0000"/>
     <use xlink:href="#md16101a10c" x="255.297375" y="196.116264" style="fill: #ff0000; stroke: #ff0000"/>
     <use xlink:href="#md16101a10c" x="382.646177" y="121.775417" style="fill: #ff0000; stroke: #ff0000"/>
     <use xlink:href="#md16101a10c" x="323.216736" y="176.349353" style="fill: #ff0000; stroke: #ff0000"/>
     <use xlink:href="#md16101a10c" x="467.545378" y="199.821779" style="fill: #ff0000; stroke: #ff0000"/>
     <use xlink:href="#md16101a10c" x="192.471967" y="113.526965" style="fill: #ff0000; stroke: #ff0000"/>
     <use xlink:href="#md16101a10c" x="420.001826" y="126.716338" style="fill: #ff0000; stroke: #ff0000"/>
     <use xlink:href="#md16101a10c" x="316.4248" y="136.348003" style="fill: #ff0000; stroke: #ff0000"/>
     <use xlink:href="#md16101a10c" x="251.901407" y="176.9571" style="fill: #ff0000; stroke: #ff0000"/>
     <use xlink:href="#md16101a10c" x="436.981666" y="212.851407" style="fill: #ff0000; stroke: #ff0000"/>
     <use xlink:href="#md16101a10c" x="246.807455" y="184.728334" style="fill: #ff0000; stroke: #ff0000"/>
     <use xlink:href="#md16101a10c" x="306.236896" y="114.862063" style="fill: #ff0000; stroke: #ff0000"/>
     <use xlink:href="#md16101a10c" x="396.230049" y="44.64" style="fill: #ff0000; stroke: #ff0000"/>
     <use xlink:href="#md16101a10c" x="313.028832" y="118.666697" style="fill: #ff0000; stroke: #ff0000"/>
     <use xlink:href="#md16101a10c" x="392.834081" y="50.376532" style="fill: #ff0000; stroke: #ff0000"/>
     <use xlink:href="#md16101a10c" x="331.706657" y="185.295408" style="fill: #ff0000; stroke: #ff0000"/>
     <use xlink:href="#md16101a10c" x="404.71997" y="55.275874" style="fill: #ff0000; stroke: #ff0000"/>
     <use xlink:href="#md16101a10c" x="311.330848" y="133.06822" style="fill: #ff0000; stroke: #ff0000"/>
     <use xlink:href="#md16101a10c" x="345.290529" y="228.978793" style="fill: #ff0000; stroke: #ff0000"/>
     <use xlink:href="#md16101a10c" x="183.982046" y="113.515264" style="fill: #ff0000; stroke: #ff0000"/>
     <use xlink:href="#md16101a10c" x="206.055839" y="132.210315" style="fill: #ff0000; stroke: #ff0000"/>
     <use xlink:href="#md16101a10c" x="399.626017" y="82.725758" style="fill: #ff0000; stroke: #ff0000"/>
     <use xlink:href="#md16101a10c" x="477.733283" y="167.924063" style="fill: #ff0000; stroke: #ff0000"/>
     <use xlink:href="#md16101a10c" x="238.317535" y="207.729347" style="fill: #ff0000; stroke: #ff0000"/>
     <use xlink:href="#md16101a10c" x="394.532065" y="90.498047" style="fill: #ff0000; stroke: #ff0000"/>
     <use xlink:href="#md16101a10c" x="491.317155" y="79.595918" style="fill: #ff0000; stroke: #ff0000"/>
     <use xlink:href="#md16101a10c" x="343.592545" y="214.195128" style="fill: #ff0000; stroke: #ff0000"/>
     <use xlink:href="#md16101a10c" x="265.48528" y="161.895045" style="fill: #ff0000; stroke: #ff0000"/>
     <use xlink:href="#md16101a10c" x="163.606238" y="134.933815" style="fill: #ff0000; stroke: #ff0000"/>
     <use xlink:href="#md16101a10c" x="260.391328" y="187.877853" style="fill: #ff0000; stroke: #ff0000"/>
     <use xlink:href="#md16101a10c" x="391.136097" y="73.374316" style="fill: #ff0000; stroke: #ff0000"/>
     <use xlink:href="#md16101a10c" x="494.713123" y="54.27916" style="fill: #ff0000; stroke: #ff0000"/>
     <use xlink:href="#md16101a10c" x="233.223583" y="207.092371" style="fill: #ff0000; stroke: #ff0000"/>
     <use xlink:href="#md16101a10c" x="177.19011" y="95.632064" style="fill: #ff0000; stroke: #ff0000"/>
     <use xlink:href="#md16101a10c" x="489.619171" y="114.104058" style="fill: #ff0000; stroke: #ff0000"/>
     <use xlink:href="#md16101a10c" x="284.163104" y="80.130055" style="fill: #ff0000; stroke: #ff0000"/>
     <use xlink:href="#md16101a10c" x="493.015139" y="91.415148" style="fill: #ff0000; stroke: #ff0000"/>
     <use xlink:href="#md16101a10c" x="462.451426" y="238.515116" style="fill: #ff0000; stroke: #ff0000"/>
     <use xlink:href="#md16101a10c" x="457.357474" y="228.39162" style="fill: #ff0000; stroke: #ff0000"/>
     <use xlink:href="#md16101a10c" x="374.156257" y="165.774097" style="fill: #ff0000; stroke: #ff0000"/>
     <use xlink:href="#md16101a10c" x="318.122784" y="121.278285" style="fill: #ff0000; stroke: #ff0000"/>
     <use xlink:href="#md16101a10c" x="350.384481" y="241.699029" style="fill: #ff0000; stroke: #ff0000"/>
     <use xlink:href="#md16101a10c" x="428.491746" y="144.94164" style="fill: #ff0000; stroke: #ff0000"/>
     <use xlink:href="#md16101a10c" x="484.525219" y="133.478752" style="fill: #ff0000; stroke: #ff0000"/>
     <use xlink:href="#md16101a10c" x="245.109471" y="191.357842" style="fill: #ff0000; stroke: #ff0000"/>
     <use xlink:href="#md16101a10c" x="160.21027" y="123.610452" style="fill: #ff0000; stroke: #ff0000"/>
     <use xlink:href="#md16101a10c" x="319.820768" y="155.782471" style="fill: #ff0000; stroke: #ff0000"/>
     <use xlink:href="#md16101a10c" x="346.988513" y="215.610624" style="fill: #ff0000; stroke: #ff0000"/>
     <use xlink:href="#md16101a10c" x="321.518752" y="146.467483" style="fill: #ff0000; stroke: #ff0000"/>
     <use xlink:href="#md16101a10c" x="268.881248" y="134.829613" style="fill: #ff0000; stroke: #ff0000"/>
     <use xlink:href="#md16101a10c" x="443.773602" y="231.731717" style="fill: #ff0000; stroke: #ff0000"/>
     <use xlink:href="#md16101a10c" x="229.827615" y="170.91523" style="fill: #ff0000; stroke: #ff0000"/>
     <use xlink:href="#md16101a10c" x="277.371168" y="111.115529" style="fill: #ff0000; stroke: #ff0000"/>
     <use xlink:href="#md16101a10c" x="243.411487" y="187.237043" style="fill: #ff0000; stroke: #ff0000"/>
     <use xlink:href="#md16101a10c" x="241.713503" y="194.793731" style="fill: #ff0000; stroke: #ff0000"/>
     <use xlink:href="#md16101a10c" x="304.538912" y="101.128926" style="fill: #ff0000; stroke: #ff0000"/>
     <use xlink:href="#md16101a10c" x="182.284062" y="81.897143" style="fill: #ff0000; stroke: #ff0000"/>
     <use xlink:href="#md16101a10c" x="433.585698" y="183.263787" style="fill: #ff0000; stroke: #ff0000"/>
     <use xlink:href="#md16101a10c" x="199.263903" y="87.952318" style="fill: #ff0000; stroke: #ff0000"/>
     <use xlink:href="#md16101a10c" x="476.035299" y="164.362714" style="fill: #ff0000; stroke: #ff0000"/>
     <use xlink:href="#md16101a10c" x="389.438113" y="63.45511" style="fill: #ff0000; stroke: #ff0000"/>
     <use xlink:href="#md16101a10c" x="194.169951" y="88.893495" style="fill: #ff0000; stroke: #ff0000"/>
     <use xlink:href="#md16101a10c" x="185.68003" y="83.913236" style="fill: #ff0000; stroke: #ff0000"/>
     <use xlink:href="#md16101a10c" x="292.653024" y="79.553802" style="fill: #ff0000; stroke: #ff0000"/>
     <use xlink:href="#md16101a10c" x="336.800609" y="183.695245" style="fill: #ff0000; stroke: #ff0000"/>
     <use xlink:href="#md16101a10c" x="248.505439" y="191.628772" style="fill: #ff0000; stroke: #ff0000"/>
     <use xlink:href="#md16101a10c" x="330.008672" y="187.970367" style="fill: #ff0000; stroke: #ff0000"/>
     <use xlink:href="#md16101a10c" x="289.257056" y="77.043647" style="fill: #ff0000; stroke: #ff0000"/>
     <use xlink:href="#md16101a10c" x="165.304222" y="154.168053" style="fill: #ff0000; stroke: #ff0000"/>
     <use xlink:href="#md16101a10c" x="357.176417" y="216.782803" style="fill: #ff0000; stroke: #ff0000"/>
     <use xlink:href="#md16101a10c" x="438.67965" y="193.150277" style="fill: #ff0000; stroke: #ff0000"/>
     <use xlink:href="#md16101a10c" x="496.411107" y="78.603932" style="fill: #ff0000; stroke: #ff0000"/>
     <use xlink:href="#md16101a10c" x="170.398174" y="112.328709" style="fill: #ff0000; stroke: #ff0000"/>
     <use xlink:href="#md16101a10c" x="275.673184" y="117.49496" style="fill: #ff0000; stroke: #ff0000"/>
     <use xlink:href="#md16101a10c" x="302.840928" y="105.228819" style="fill: #ff0000; stroke: #ff0000"/>
     <use xlink:href="#md16101a10c" x="365.666337" y="189.454202" style="fill: #ff0000; stroke: #ff0000"/>
     <use xlink:href="#md16101a10c" x="423.397794" y="124.833809" style="fill: #ff0000; stroke: #ff0000"/>
     <use xlink:href="#md16101a10c" x="450.565538" y="228.001098" style="fill: #ff0000; stroke: #ff0000"/>
     <use xlink:href="#md16101a10c" x="425.095778" y="132.927378" style="fill: #ff0000; stroke: #ff0000"/>
     <use xlink:href="#md16101a10c" x="314.726816" y="116.230522" style="fill: #ff0000; stroke: #ff0000"/>
     <use xlink:href="#md16101a10c" x="498.109091" y="56.090454" style="fill: #ff0000; stroke: #ff0000"/>
     <use xlink:href="#md16101a10c" x="178.888094" y="104.153068" style="fill: #ff0000; stroke: #ff0000"/>
     <use xlink:href="#md16101a10c" x="362.270369" y="173.581464" style="fill: #ff0000; stroke: #ff0000"/>
     <use xlink:href="#md16101a10c" x="333.404641" y="202.087349" style="fill: #ff0000; stroke: #ff0000"/>
     <use xlink:href="#md16101a10c" x="219.639711" y="168.208017" style="fill: #ff0000; stroke: #ff0000"/>
     <use xlink:href="#md16101a10c" x="256.995359" y="160.576353" style="fill: #ff0000; stroke: #ff0000"/>
     <use xlink:href="#md16101a10c" x="270.579232" y="117.478452" style="fill: #ff0000; stroke: #ff0000"/>
     <use xlink:href="#md16101a10c" x="161.908254" y="131.117118" style="fill: #ff0000; stroke: #ff0000"/>
     <use xlink:href="#md16101a10c" x="363.968353" y="205.368196" style="fill: #ff0000; stroke: #ff0000"/>
     <use xlink:href="#md16101a10c" x="435.283682" y="166.27374" style="fill: #ff0000; stroke: #ff0000"/>
     <use xlink:href="#md16101a10c" x="231.525599" y="185.508279" style="fill: #ff0000; stroke: #ff0000"/>
     <use xlink:href="#md16101a10c" x="338.498593" y="185.6187" style="fill: #ff0000; stroke: #ff0000"/>
     <use xlink:href="#md16101a10c" x="384.344161" y="115.527154" style="fill: #ff0000; stroke: #ff0000"/>
     <use xlink:href="#md16101a10c" x="453.961506" y="216.685809" style="fill: #ff0000; stroke: #ff0000"/>
     <use xlink:href="#md16101a10c" x="189.075998" y="110.482444" style="fill: #ff0000; stroke: #ff0000"/>
     <use xlink:href="#md16101a10c" x="224.733663" y="174.682474" style="fill: #ff0000; stroke: #ff0000"/>
     <use xlink:href="#md16101a10c" x="386.042145" y="110.472732" style="fill: #ff0000; stroke: #ff0000"/>
     <use xlink:href="#md16101a10c" x="250.203423" y="179.066643" style="fill: #ff0000; stroke: #ff0000"/>
     <use xlink:href="#md16101a10c" x="426.793762" y="130.294442" style="fill: #ff0000; stroke: #ff0000"/>
     <use xlink:href="#md16101a10c" x="377.552225" y="124.24778" style="fill: #ff0000; stroke: #ff0000"/>
     <use xlink:href="#md16101a10c" x="217.941727" y="164.192282" style="fill: #ff0000; stroke: #ff0000"/>
     <use xlink:href="#md16101a10c" x="207.753823" y="147.899772" style="fill: #ff0000; stroke: #ff0000"/>
     <use xlink:href="#md16101a10c" x="353.780449" y="204.780237" style="fill: #ff0000; stroke: #ff0000"/>
     <use xlink:href="#md16101a10c" x="416.605858" y="100.144679" style="fill: #ff0000; stroke: #ff0000"/>
     <use xlink:href="#md16101a10c" x="212.847775" y="132.739458" style="fill: #ff0000; stroke: #ff0000"/>
     <use xlink:href="#md16101a10c" x="442.075618" y="195.850448" style="fill: #ff0000; stroke: #ff0000"/>
     <use xlink:href="#md16101a10c" x="375.854241" y="112.625297" style="fill: #ff0000; stroke: #ff0000"/>
     <use xlink:href="#md16101a10c" x="459.055458" y="213.434041" style="fill: #ff0000; stroke: #ff0000"/>
     <use xlink:href="#md16101a10c" x="214.545759" y="171.995131" style="fill: #ff0000; stroke: #ff0000"/>
     <use xlink:href="#md16101a10c" x="401.324002" y="71.128253" style="fill: #ff0000; stroke: #ff0000"/>
     <use xlink:href="#md16101a10c" x="447.16957" y="216.105585" style="fill: #ff0000; stroke: #ff0000"/>
     <use xlink:href="#md16101a10c" x="409.813922" y="91.44811" style="fill: #ff0000; stroke: #ff0000"/>
     <use xlink:href="#md16101a10c" x="209.451807" y="131.5564" style="fill: #ff0000; stroke: #ff0000"/>
     <use xlink:href="#md16101a10c" x="328.310688" y="199.256526" style="fill: #ff0000; stroke: #ff0000"/>
     <use xlink:href="#md16101a10c" x="299.44496" y="96.797658" style="fill: #ff0000; stroke: #ff0000"/>
     <use xlink:href="#md16101a10c" x="294.351008" y="102.233114" style="fill: #ff0000; stroke: #ff0000"/>
     <use xlink:href="#md16101a10c" x="355.478433" y="197.140031" style="fill: #ff0000; stroke: #ff0000"/>
     <use xlink:href="#md16101a10c" x="411.511906" y="93.51606" style="fill: #ff0000; stroke: #ff0000"/>
     <use xlink:href="#md16101a10c" x="487.921187" y="112.26943" style="fill: #ff0000; stroke: #ff0000"/>
     <use xlink:href="#md16101a10c" x="282.46512" y="73.938324" style="fill: #ff0000; stroke: #ff0000"/>
     <use xlink:href="#md16101a10c" x="290.95504" y="70.822993" style="fill: #ff0000; stroke: #ff0000"/>
     <use xlink:href="#md16101a10c" x="202.659871" y="135.826436" style="fill: #ff0000; stroke: #ff0000"/>
     <use xlink:href="#md16101a10c" x="440.377634" y="223.237005" style="fill: #ff0000; stroke: #ff0000"/>
     <use xlink:href="#md16101a10c" x="297.746976" y="75.045358" style="fill: #ff0000; stroke: #ff0000"/>
     <use xlink:href="#md16101a10c" x="479.431267" y="146.470552" style="fill: #ff0000; stroke: #ff0000"/>
     <use xlink:href="#md16101a10c" x="455.65949" y="246.24" style="fill: #ff0000; stroke: #ff0000"/>
     <use xlink:href="#md16101a10c" x="482.827235" y="111.051486" style="fill: #ff0000; stroke: #ff0000"/>
     <use xlink:href="#md16101a10c" x="226.431647" y="179.214171" style="fill: #ff0000; stroke: #ff0000"/>
     <use xlink:href="#md16101a10c" x="258.693343" y="172.361232" style="fill: #ff0000; stroke: #ff0000"/>
     <use xlink:href="#md16101a10c" x="397.928033" y="61.275437" style="fill: #ff0000; stroke: #ff0000"/>
     <use xlink:href="#md16101a10c" x="309.632864" y="94.612853" style="fill: #ff0000; stroke: #ff0000"/>
     <use xlink:href="#md16101a10c" x="279.069152" y="112.362937" style="fill: #ff0000; stroke: #ff0000"/>
     <use xlink:href="#md16101a10c" x="307.93488" y="105.201381" style="fill: #ff0000; stroke: #ff0000"/>
     <use xlink:href="#md16101a10c" x="221.337695" y="184.176045" style="fill: #ff0000; stroke: #ff0000"/>
     <use xlink:href="#md16101a10c" x="195.867935" y="115.158918" style="fill: #ff0000; stroke: #ff0000"/>
     <use xlink:href="#md16101a10c" x="175.492126" y="85.558029" style="fill: #ff0000; stroke: #ff0000"/>
     <use xlink:href="#md16101a10c" x="335.102625" y="189.458543" style="fill: #ff0000; stroke: #ff0000"/>
     <use xlink:href="#md16101a10c" x="273.9752" y="120.343669" style="fill: #ff0000; stroke: #ff0000"/>
     <use xlink:href="#md16101a10c" x="486.223203" y="126.550853" style="fill: #ff0000; stroke: #ff0000"/>
     <use xlink:href="#md16101a10c" x="358.874401" y="214.639309" style="fill: #ff0000; stroke: #ff0000"/>
     <use xlink:href="#md16101a10c" x="240.015519" y="225.259565" style="fill: #ff0000; stroke: #ff0000"/>
     <use xlink:href="#md16101a10c" x="452.263522" y="236.804229" style="fill: #ff0000; stroke: #ff0000"/>
    </g>
   </g>
   <g id="matplotlib.axis_1">
    <g id="xtick_1">
     <g id="line2d_1">
      <defs>
       <path id="m8085f8b8a1" d="M 0 0 
L 0 3.5 
" style="stroke: #000000; stroke-width: 0.8"/>
      </defs>
      <g>
       <use xlink:href="#m8085f8b8a1" x="75.311069" y="256.32" style="stroke: #000000; stroke-width: 0.8"/>
      </g>
     </g>
     <g id="text_1">
      <!-- −5 -->
      <g transform="translate(67.939975 270.918437) scale(0.1 -0.1)">
       <defs>
        <path id="DejaVuSans-2212" d="M 678 2272 
L 4684 2272 
L 4684 1741 
L 678 1741 
L 678 2272 
z
" transform="scale(0.015625)"/>
        <path id="DejaVuSans-35" d="M 691 4666 
L 3169 4666 
L 3169 4134 
L 1269 4134 
L 1269 2991 
Q 1406 3038 1543 3061 
Q 1681 3084 1819 3084 
Q 2600 3084 3056 2656 
Q 3513 2228 3513 1497 
Q 3513 744 3044 326 
Q 2575 -91 1722 -91 
Q 1428 -91 1123 -41 
Q 819 9 494 109 
L 494 744 
Q 775 591 1075 516 
Q 1375 441 1709 441 
Q 2250 441 2565 725 
Q 2881 1009 2881 1497 
Q 2881 1984 2565 2268 
Q 2250 2553 1709 2553 
Q 1456 2553 1204 2497 
Q 953 2441 691 2322 
L 691 4666 
z
" transform="scale(0.015625)"/>
       </defs>
       <use xlink:href="#DejaVuSans-2212"/>
       <use xlink:href="#DejaVuSans-35" x="83.789062"/>
      </g>
     </g>
    </g>
    <g id="xtick_2">
     <g id="line2d_2">
      <g>
       <use xlink:href="#m8085f8b8a1" x="160.21027" y="256.32" style="stroke: #000000; stroke-width: 0.8"/>
      </g>
     </g>
     <g id="text_2">
      <!-- 0 -->
      <g transform="translate(157.02902 270.918437) scale(0.1 -0.1)">
       <defs>
        <path id="DejaVuSans-30" d="M 2034 4250 
Q 1547 4250 1301 3770 
Q 1056 3291 1056 2328 
Q 1056 1369 1301 889 
Q 1547 409 2034 409 
Q 2525 409 2770 889 
Q 3016 1369 3016 2328 
Q 3016 3291 2770 3770 
Q 2525 4250 2034 4250 
z
M 2034 4750 
Q 2819 4750 3233 4129 
Q 3647 3509 3647 2328 
Q 3647 1150 3233 529 
Q 2819 -91 2034 -91 
Q 1250 -91 836 529 
Q 422 1150 422 2328 
Q 422 3509 836 4129 
Q 1250 4750 2034 4750 
z
" transform="scale(0.015625)"/>
       </defs>
       <use xlink:href="#DejaVuSans-30"/>
      </g>
     </g>
    </g>
    <g id="xtick_3">
     <g id="line2d_3">
      <g>
       <use xlink:href="#m8085f8b8a1" x="245.109471" y="256.32" style="stroke: #000000; stroke-width: 0.8"/>
      </g>
     </g>
     <g id="text_3">
      <!-- 5 -->
      <g transform="translate(241.928221 270.918437) scale(0.1 -0.1)">
       <use xlink:href="#DejaVuSans-35"/>
      </g>
     </g>
    </g>
    <g id="xtick_4">
     <g id="line2d_4">
      <g>
       <use xlink:href="#m8085f8b8a1" x="330.008672" y="256.32" style="stroke: #000000; stroke-width: 0.8"/>
      </g>
     </g>
     <g id="text_4">
      <!-- 10 -->
      <g transform="translate(323.646172 270.918437) scale(0.1 -0.1)">
       <defs>
        <path id="DejaVuSans-31" d="M 794 531 
L 1825 531 
L 1825 4091 
L 703 3866 
L 703 4441 
L 1819 4666 
L 2450 4666 
L 2450 531 
L 3481 531 
L 3481 0 
L 794 0 
L 794 531 
z
" transform="scale(0.015625)"/>
       </defs>
       <use xlink:href="#DejaVuSans-31"/>
       <use xlink:href="#DejaVuSans-30" x="63.623047"/>
      </g>
     </g>
    </g>
    <g id="xtick_5">
     <g id="line2d_5">
      <g>
       <use xlink:href="#m8085f8b8a1" x="414.907874" y="256.32" style="stroke: #000000; stroke-width: 0.8"/>
      </g>
     </g>
     <g id="text_5">
      <!-- 15 -->
      <g transform="translate(408.545374 270.918437) scale(0.1 -0.1)">
       <use xlink:href="#DejaVuSans-31"/>
       <use xlink:href="#DejaVuSans-35" x="63.623047"/>
      </g>
     </g>
    </g>
    <g id="xtick_6">
     <g id="line2d_6">
      <g>
       <use xlink:href="#m8085f8b8a1" x="499.807075" y="256.32" style="stroke: #000000; stroke-width: 0.8"/>
      </g>
     </g>
     <g id="text_6">
      <!-- 20 -->
      <g transform="translate(493.444575 270.918437) scale(0.1 -0.1)">
       <defs>
        <path id="DejaVuSans-32" d="M 1228 531 
L 3431 531 
L 3431 0 
L 469 0 
L 469 531 
Q 828 903 1448 1529 
Q 2069 2156 2228 2338 
Q 2531 2678 2651 2914 
Q 2772 3150 2772 3378 
Q 2772 3750 2511 3984 
Q 2250 4219 1831 4219 
Q 1534 4219 1204 4116 
Q 875 4013 500 3803 
L 500 4441 
Q 881 4594 1212 4672 
Q 1544 4750 1819 4750 
Q 2544 4750 2975 4387 
Q 3406 4025 3406 3419 
Q 3406 3131 3298 2873 
Q 3191 2616 2906 2266 
Q 2828 2175 2409 1742 
Q 1991 1309 1228 531 
z
" transform="scale(0.015625)"/>
       </defs>
       <use xlink:href="#DejaVuSans-32"/>
       <use xlink:href="#DejaVuSans-30" x="63.623047"/>
      </g>
     </g>
    </g>
    <g id="text_7">
     <!-- x -->
     <g transform="translate(292.240625 284.596563) scale(0.1 -0.1)">
      <defs>
       <path id="DejaVuSans-78" d="M 3513 3500 
L 2247 1797 
L 3578 0 
L 2900 0 
L 1881 1375 
L 863 0 
L 184 0 
L 1544 1831 
L 300 3500 
L 978 3500 
L 1906 2253 
L 2834 3500 
L 3513 3500 
z
" transform="scale(0.015625)"/>
      </defs>
      <use xlink:href="#DejaVuSans-78"/>
     </g>
    </g>
   </g>
   <g id="matplotlib.axis_2">
    <g id="ytick_1">
     <g id="line2d_7">
      <defs>
       <path id="m46ceb0cba6" d="M 0 0 
L -3.5 0 
" style="stroke: #000000; stroke-width: 0.8"/>
      </defs>
      <g>
       <use xlink:href="#m46ceb0cba6" x="72" y="216.854351" style="stroke: #000000; stroke-width: 0.8"/>
      </g>
     </g>
     <g id="text_8">
      <!-- 0 -->
      <g transform="translate(58.6375 220.65357) scale(0.1 -0.1)">
       <use xlink:href="#DejaVuSans-30"/>
      </g>
     </g>
    </g>
    <g id="ytick_2">
     <g id="line2d_8">
      <g>
       <use xlink:href="#m46ceb0cba6" x="72" y="169.333995" style="stroke: #000000; stroke-width: 0.8"/>
      </g>
     </g>
     <g id="text_9">
      <!-- 1 -->
      <g transform="translate(58.6375 173.133213) scale(0.1 -0.1)">
       <use xlink:href="#DejaVuSans-31"/>
      </g>
     </g>
    </g>
    <g id="ytick_3">
     <g id="line2d_9">
      <g>
       <use xlink:href="#m46ceb0cba6" x="72" y="121.813638" style="stroke: #000000; stroke-width: 0.8"/>
      </g>
     </g>
     <g id="text_10">
      <!-- 2 -->
      <g transform="translate(58.6375 125.612857) scale(0.1 -0.1)">
       <use xlink:href="#DejaVuSans-32"/>
      </g>
     </g>
    </g>
    <g id="ytick_4">
     <g id="line2d_10">
      <g>
       <use xlink:href="#m46ceb0cba6" x="72" y="74.293281" style="stroke: #000000; stroke-width: 0.8"/>
      </g>
     </g>
     <g id="text_11">
      <!-- 3 -->
      <g transform="translate(58.6375 78.0925) scale(0.1 -0.1)">
       <defs>
        <path id="DejaVuSans-33" d="M 2597 2516 
Q 3050 2419 3304 2112 
Q 3559 1806 3559 1356 
Q 3559 666 3084 287 
Q 2609 -91 1734 -91 
Q 1441 -91 1130 -33 
Q 819 25 488 141 
L 488 750 
Q 750 597 1062 519 
Q 1375 441 1716 441 
Q 2309 441 2620 675 
Q 2931 909 2931 1356 
Q 2931 1769 2642 2001 
Q 2353 2234 1838 2234 
L 1294 2234 
L 1294 2753 
L 1863 2753 
Q 2328 2753 2575 2939 
Q 2822 3125 2822 3475 
Q 2822 3834 2567 4026 
Q 2313 4219 1838 4219 
Q 1578 4219 1281 4162 
Q 984 4106 628 3988 
L 628 4550 
Q 988 4650 1302 4700 
Q 1616 4750 1894 4750 
Q 2613 4750 3031 4423 
Q 3450 4097 3450 3541 
Q 3450 3153 3228 2886 
Q 3006 2619 2597 2516 
z
" transform="scale(0.015625)"/>
       </defs>
       <use xlink:href="#DejaVuSans-33"/>
      </g>
     </g>
    </g>
    <g id="text_12">
     <!-- y -->
     <g transform="translate(52.557813 148.399375) rotate(-90) scale(0.1 -0.1)">
      <defs>
       <path id="DejaVuSans-79" d="M 2059 -325 
Q 1816 -950 1584 -1140 
Q 1353 -1331 966 -1331 
L 506 -1331 
L 506 -850 
L 844 -850 
Q 1081 -850 1212 -737 
Q 1344 -625 1503 -206 
L 1606 56 
L 191 3500 
L 800 3500 
L 1894 763 
L 2988 3500 
L 3597 3500 
L 2059 -325 
z
" transform="scale(0.015625)"/>
      </defs>
      <use xlink:href="#DejaVuSans-79"/>
     </g>
    </g>
   </g>
   <g id="line2d_11">
    <path d="M 92.290909 67.963084 
L 99.116976 74.306516 
L 105.943042 80.322641 
L 112.769108 86.019819 
L 119.595175 91.406407 
L 126.421241 96.490765 
L 133.247308 101.281252 
L 140.073374 105.786227 
L 146.899441 110.014048 
L 153.725507 113.973074 
L 160.551573 117.671664 
L 167.37764 121.118177 
L 174.203706 124.320972 
L 181.029773 127.288408 
L 187.855839 130.028843 
L 195.364512 132.791113 
L 202.873185 135.299951 
L 210.381858 137.566486 
L 217.890531 139.601841 
L 225.399204 141.417141 
L 228.129631 142.024864 
L 228.129631 142.024864 
" clip-path="url(#p7f3aaa6433)" style="fill: none; stroke: #0000ff; stroke-width: 1.5; stroke-linecap: square"/>
   </g>
   <g id="patch_3">
    <path d="M 72 256.32 
L 72 34.56 
" style="fill: none; stroke: #000000; stroke-width: 0.8; stroke-linejoin: miter; stroke-linecap: square"/>
   </g>
   <g id="patch_4">
    <path d="M 518.4 256.32 
L 518.4 34.56 
" style="fill: none; stroke: #000000; stroke-width: 0.8; stroke-linejoin: miter; stroke-linecap: square"/>
   </g>
   <g id="patch_5">
    <path d="M 72 256.32 
L 518.4 256.32 
" style="fill: none; stroke: #000000; stroke-width: 0.8; stroke-linejoin: miter; stroke-linecap: square"/>
   </g>
   <g id="patch_6">
    <path d="M 72 34.56 
L 518.4 34.56 
" style="fill: none; stroke: #000000; stroke-width: 0.8; stroke-linejoin: miter; stroke-linecap: square"/>
   </g>
   <g id="legend_1">
    <g id="patch_7">
     <path d="M 79 251.32 
L 199.957812 251.32 
Q 201.957812 251.32 201.957812 249.32 
L 201.957812 220.96375 
Q 201.957812 218.96375 199.957812 218.96375 
L 79 218.96375 
Q 77 218.96375 77 220.96375 
L 77 249.32 
Q 77 251.32 79 251.32 
z
" style="fill: #ffffff; opacity: 0.8; stroke: #cccccc; stroke-linejoin: miter"/>
    </g>
    <g id="PathCollection_2">
     <g>
      <use xlink:href="#md16101a10c" x="91" y="227.937187" style="fill: #ff0000; stroke: #ff0000"/>
     </g>
    </g>
    <g id="text_13">
     <!-- Training data -->
     <g transform="translate(109 230.562187) scale(0.1 -0.1)">
      <defs>
       <path id="DejaVuSans-54" d="M -19 4666 
L 3928 4666 
L 3928 4134 
L 2272 4134 
L 2272 0 
L 1638 0 
L 1638 4134 
L -19 4134 
L -19 4666 
z
" transform="scale(0.015625)"/>
       <path id="DejaVuSans-72" d="M 2631 2963 
Q 2534 3019 2420 3045 
Q 2306 3072 2169 3072 
Q 1681 3072 1420 2755 
Q 1159 2438 1159 1844 
L 1159 0 
L 581 0 
L 581 3500 
L 1159 3500 
L 1159 2956 
Q 1341 3275 1631 3429 
Q 1922 3584 2338 3584 
Q 2397 3584 2469 3576 
Q 2541 3569 2628 3553 
L 2631 2963 
z
" transform="scale(0.015625)"/>
       <path id="DejaVuSans-61" d="M 2194 1759 
Q 1497 1759 1228 1600 
Q 959 1441 959 1056 
Q 959 750 1161 570 
Q 1363 391 1709 391 
Q 2188 391 2477 730 
Q 2766 1069 2766 1631 
L 2766 1759 
L 2194 1759 
z
M 3341 1997 
L 3341 0 
L 2766 0 
L 2766 531 
Q 2569 213 2275 61 
Q 1981 -91 1556 -91 
Q 1019 -91 701 211 
Q 384 513 384 1019 
Q 384 1609 779 1909 
Q 1175 2209 1959 2209 
L 2766 2209 
L 2766 2266 
Q 2766 2663 2505 2880 
Q 2244 3097 1772 3097 
Q 1472 3097 1187 3025 
Q 903 2953 641 2809 
L 641 3341 
Q 956 3463 1253 3523 
Q 1550 3584 1831 3584 
Q 2591 3584 2966 3190 
Q 3341 2797 3341 1997 
z
" transform="scale(0.015625)"/>
       <path id="DejaVuSans-69" d="M 603 3500 
L 1178 3500 
L 1178 0 
L 603 0 
L 603 3500 
z
M 603 4863 
L 1178 4863 
L 1178 4134 
L 603 4134 
L 603 4863 
z
" transform="scale(0.015625)"/>
       <path id="DejaVuSans-6e" d="M 3513 2113 
L 3513 0 
L 2938 0 
L 2938 2094 
Q 2938 2591 2744 2837 
Q 2550 3084 2163 3084 
Q 1697 3084 1428 2787 
Q 1159 2491 1159 1978 
L 1159 0 
L 581 0 
L 581 3500 
L 1159 3500 
L 1159 2956 
Q 1366 3272 1645 3428 
Q 1925 3584 2291 3584 
Q 2894 3584 3203 3211 
Q 3513 2838 3513 2113 
z
" transform="scale(0.015625)"/>
       <path id="DejaVuSans-67" d="M 2906 1791 
Q 2906 2416 2648 2759 
Q 2391 3103 1925 3103 
Q 1463 3103 1205 2759 
Q 947 2416 947 1791 
Q 947 1169 1205 825 
Q 1463 481 1925 481 
Q 2391 481 2648 825 
Q 2906 1169 2906 1791 
z
M 3481 434 
Q 3481 -459 3084 -895 
Q 2688 -1331 1869 -1331 
Q 1566 -1331 1297 -1286 
Q 1028 -1241 775 -1147 
L 775 -588 
Q 1028 -725 1275 -790 
Q 1522 -856 1778 -856 
Q 2344 -856 2625 -561 
Q 2906 -266 2906 331 
L 2906 616 
Q 2728 306 2450 153 
Q 2172 0 1784 0 
Q 1141 0 747 490 
Q 353 981 353 1791 
Q 353 2603 747 3093 
Q 1141 3584 1784 3584 
Q 2172 3584 2450 3431 
Q 2728 3278 2906 2969 
L 2906 3500 
L 3481 3500 
L 3481 434 
z
" transform="scale(0.015625)"/>
       <path id="DejaVuSans-20" transform="scale(0.015625)"/>
       <path id="DejaVuSans-64" d="M 2906 2969 
L 2906 4863 
L 3481 4863 
L 3481 0 
L 2906 0 
L 2906 525 
Q 2725 213 2448 61 
Q 2172 -91 1784 -91 
Q 1150 -91 751 415 
Q 353 922 353 1747 
Q 353 2572 751 3078 
Q 1150 3584 1784 3584 
Q 2172 3584 2448 3432 
Q 2725 3281 2906 2969 
z
M 947 1747 
Q 947 1113 1208 752 
Q 1469 391 1925 391 
Q 2381 391 2643 752 
Q 2906 1113 2906 1747 
Q 2906 2381 2643 2742 
Q 2381 3103 1925 3103 
Q 1469 3103 1208 2742 
Q 947 2381 947 1747 
z
" transform="scale(0.015625)"/>
       <path id="DejaVuSans-74" d="M 1172 4494 
L 1172 3500 
L 2356 3500 
L 2356 3053 
L 1172 3053 
L 1172 1153 
Q 1172 725 1289 603 
Q 1406 481 1766 481 
L 2356 481 
L 2356 0 
L 1766 0 
Q 1100 0 847 248 
Q 594 497 594 1153 
L 594 3053 
L 172 3053 
L 172 3500 
L 594 3500 
L 594 4494 
L 1172 4494 
z
" transform="scale(0.015625)"/>
      </defs>
      <use xlink:href="#DejaVuSans-54"/>
      <use xlink:href="#DejaVuSans-72" x="46.333984"/>
      <use xlink:href="#DejaVuSans-61" x="87.447266"/>
      <use xlink:href="#DejaVuSans-69" x="148.726562"/>
      <use xlink:href="#DejaVuSans-6e" x="176.509766"/>
      <use xlink:href="#DejaVuSans-69" x="239.888672"/>
      <use xlink:href="#DejaVuSans-6e" x="267.671875"/>
      <use xlink:href="#DejaVuSans-67" x="331.050781"/>
      <use xlink:href="#DejaVuSans-20" x="394.527344"/>
      <use xlink:href="#DejaVuSans-64" x="426.314453"/>
      <use xlink:href="#DejaVuSans-61" x="489.791016"/>
      <use xlink:href="#DejaVuSans-74" x="551.070312"/>
      <use xlink:href="#DejaVuSans-61" x="590.279297"/>
     </g>
    </g>
    <g id="line2d_12">
     <path d="M 81 241.740313 
L 91 241.740313 
L 101 241.740313 
" style="fill: none; stroke: #0000ff; stroke-width: 1.5; stroke-linecap: square"/>
    </g>
    <g id="text_14">
     <!-- Polynomial Kernel -->
     <g transform="translate(109 245.240313) scale(0.1 -0.1)">
      <defs>
       <path id="DejaVuSans-50" d="M 1259 4147 
L 1259 2394 
L 2053 2394 
Q 2494 2394 2734 2622 
Q 2975 2850 2975 3272 
Q 2975 3691 2734 3919 
Q 2494 4147 2053 4147 
L 1259 4147 
z
M 628 4666 
L 2053 4666 
Q 2838 4666 3239 4311 
Q 3641 3956 3641 3272 
Q 3641 2581 3239 2228 
Q 2838 1875 2053 1875 
L 1259 1875 
L 1259 0 
L 628 0 
L 628 4666 
z
" transform="scale(0.015625)"/>
       <path id="DejaVuSans-6f" d="M 1959 3097 
Q 1497 3097 1228 2736 
Q 959 2375 959 1747 
Q 959 1119 1226 758 
Q 1494 397 1959 397 
Q 2419 397 2687 759 
Q 2956 1122 2956 1747 
Q 2956 2369 2687 2733 
Q 2419 3097 1959 3097 
z
M 1959 3584 
Q 2709 3584 3137 3096 
Q 3566 2609 3566 1747 
Q 3566 888 3137 398 
Q 2709 -91 1959 -91 
Q 1206 -91 779 398 
Q 353 888 353 1747 
Q 353 2609 779 3096 
Q 1206 3584 1959 3584 
z
" transform="scale(0.015625)"/>
       <path id="DejaVuSans-6c" d="M 603 4863 
L 1178 4863 
L 1178 0 
L 603 0 
L 603 4863 
z
" transform="scale(0.015625)"/>
       <path id="DejaVuSans-6d" d="M 3328 2828 
Q 3544 3216 3844 3400 
Q 4144 3584 4550 3584 
Q 5097 3584 5394 3201 
Q 5691 2819 5691 2113 
L 5691 0 
L 5113 0 
L 5113 2094 
Q 5113 2597 4934 2840 
Q 4756 3084 4391 3084 
Q 3944 3084 3684 2787 
Q 3425 2491 3425 1978 
L 3425 0 
L 2847 0 
L 2847 2094 
Q 2847 2600 2669 2842 
Q 2491 3084 2119 3084 
Q 1678 3084 1418 2786 
Q 1159 2488 1159 1978 
L 1159 0 
L 581 0 
L 581 3500 
L 1159 3500 
L 1159 2956 
Q 1356 3278 1631 3431 
Q 1906 3584 2284 3584 
Q 2666 3584 2933 3390 
Q 3200 3197 3328 2828 
z
" transform="scale(0.015625)"/>
       <path id="DejaVuSans-4b" d="M 628 4666 
L 1259 4666 
L 1259 2694 
L 3353 4666 
L 4166 4666 
L 1850 2491 
L 4331 0 
L 3500 0 
L 1259 2247 
L 1259 0 
L 628 0 
L 628 4666 
z
" transform="scale(0.015625)"/>
       <path id="DejaVuSans-65" d="M 3597 1894 
L 3597 1613 
L 953 1613 
Q 991 1019 1311 708 
Q 1631 397 2203 397 
Q 2534 397 2845 478 
Q 3156 559 3463 722 
L 3463 178 
Q 3153 47 2828 -22 
Q 2503 -91 2169 -91 
Q 1331 -91 842 396 
Q 353 884 353 1716 
Q 353 2575 817 3079 
Q 1281 3584 2069 3584 
Q 2775 3584 3186 3129 
Q 3597 2675 3597 1894 
z
M 3022 2063 
Q 3016 2534 2758 2815 
Q 2500 3097 2075 3097 
Q 1594 3097 1305 2825 
Q 1016 2553 972 2059 
L 3022 2063 
z
" transform="scale(0.015625)"/>
      </defs>
      <use xlink:href="#DejaVuSans-50"/>
      <use xlink:href="#DejaVuSans-6f" x="56.677734"/>
      <use xlink:href="#DejaVuSans-6c" x="117.859375"/>
      <use xlink:href="#DejaVuSans-79" x="145.642578"/>
      <use xlink:href="#DejaVuSans-6e" x="204.822266"/>
      <use xlink:href="#DejaVuSans-6f" x="268.201172"/>
      <use xlink:href="#DejaVuSans-6d" x="329.382812"/>
      <use xlink:href="#DejaVuSans-69" x="426.794922"/>
      <use xlink:href="#DejaVuSans-61" x="454.578125"/>
      <use xlink:href="#DejaVuSans-6c" x="515.857422"/>
      <use xlink:href="#DejaVuSans-20" x="543.640625"/>
      <use xlink:href="#DejaVuSans-4b" x="575.427734"/>
      <use xlink:href="#DejaVuSans-65" x="636.003906"/>
      <use xlink:href="#DejaVuSans-72" x="697.527344"/>
      <use xlink:href="#DejaVuSans-6e" x="736.890625"/>
      <use xlink:href="#DejaVuSans-65" x="800.269531"/>
      <use xlink:href="#DejaVuSans-6c" x="861.792969"/>
     </g>
    </g>
   </g>
  </g>
 </g>
 <defs>
  <clipPath id="p7f3aaa6433">
   <rect x="72" y="34.56" width="446.4" height="221.76"/>
  </clipPath>
 </defs>
</svg>
